<svg aria-hidden="true" style="position: absolute; width: 0; height: 0; overflow: hidden;" version="1.1" xmlns="http://www.w3.org/2000/svg" xmlns:xlink="http://www.w3.org/1999/xlink">
<defs>
<symbol id="icon-heroicons-solid_menu" viewBox="0 0 32 32">
<path d="M4.799 8.001c0-0.424 0.169-0.831 0.469-1.131s0.707-0.469 1.131-0.469h19.2c0.424 0 0.831 0.169 1.131 0.469s0.469 0.707 0.469 1.131-0.169 0.831-0.469 1.131c-0.3 0.3-0.707 0.469-1.131 0.469h-19.2c-0.424 0-0.831-0.169-1.131-0.469s-0.469-0.707-0.469-1.131z"></path>
<path d="M4.799 16.001c0-0.424 0.169-0.831 0.469-1.131s0.707-0.469 1.131-0.469h19.2c0.424 0 0.831 0.169 1.131 0.469s0.469 0.707 0.469 1.131c0 0.424-0.169 0.831-0.469 1.131s-0.707 0.469-1.131 0.469h-19.2c-0.424 0-0.831-0.169-1.131-0.469s-0.469-0.707-0.469-1.131z"></path>
<path d="M4.799 24.001c0-0.424 0.169-0.831 0.469-1.131s0.707-0.469 1.131-0.469h19.2c0.424 0 0.831 0.169 1.131 0.469s0.469 0.707 0.469 1.131c0 0.424-0.169 0.831-0.469 1.131s-0.707 0.469-1.131 0.469h-19.2c-0.424 0-0.831-0.169-1.131-0.469s-0.469-0.707-0.469-1.131z"></path>
</symbol>
<symbol id="icon-check" viewBox="0 0 32 32">
<path fill="#f4f4fd" style="fill: var(--color1, #f4f4fd)" d="M27.074 4.766c0.526-0.462 1.226-0.718 1.952-0.713s1.422 0.27 1.94 0.74 0.819 1.106 0.838 1.776c0.019 0.67-0.244 1.321-0.735 1.815l-14.896 17.196c-0.256 0.255-0.565 0.459-0.909 0.601s-0.715 0.218-1.091 0.225c-0.376 0.006-0.75-0.057-1.099-0.187s-0.666-0.324-0.932-0.569l-9.878-9.119c-0.275-0.237-0.496-0.522-0.649-0.839s-0.235-0.659-0.242-1.006c-0.007-0.347 0.063-0.692 0.203-1.014s0.35-0.614 0.616-0.86c0.266-0.245 0.583-0.439 0.931-0.569s0.722-0.194 1.098-0.188c0.376 0.006 0.747 0.082 1.090 0.223s0.653 0.345 0.909 0.599l7.818 7.213 12.966-15.249c0.023-0.027 0.048-0.052 0.075-0.076h-0.004z"></path>
</symbol>
<symbol id="icon-icon-send" viewBox="0 0 32 32">
<path fill="#fff" style="fill: var(--color2, #fff)" d="M32 2.667l-32 15 10.227 3.156 15.773-12.323-11.998 13.488 0.010 0.003-0.012-0.003v7.345l5.735-5.576 7.265 2.242 5-23.333z"></path>
</symbol>
<symbol id="icon-Checkbox" viewBox="0 0 32 32">
<path fill="none" stroke="#2e2f42" style="stroke: var(--color3, #2e2f42)" stroke-linejoin="miter" stroke-linecap="butt" stroke-miterlimit="4" stroke-width="2" d="M4 1h24c1.657 0 3 1.343 3 3v24c0 1.657-1.343 3-3 3h-24c-1.657 0-3-1.343-3-3v-24c0-1.657 1.343-3 3-3z"></path>
<path fill="#f4f4fd" style="fill: var(--color1, #f4f4fd)" d="M22.921 8.979c0.329-0.289 0.766-0.449 1.22-0.445s0.889 0.169 1.212 0.462c0.324 0.293 0.512 0.691 0.524 1.11s-0.153 0.825-0.459 1.134l-9.31 10.748c-0.16 0.159-0.353 0.287-0.568 0.376s-0.447 0.136-0.682 0.14-0.469-0.036-0.687-0.117c-0.218-0.081-0.416-0.202-0.583-0.356l-6.174-5.699c-0.172-0.148-0.31-0.326-0.405-0.524s-0.147-0.412-0.151-0.629c-0.004-0.217 0.039-0.432 0.127-0.633s0.219-0.384 0.385-0.537c0.166-0.153 0.364-0.274 0.582-0.356s0.451-0.121 0.686-0.117c0.235 0.004 0.467 0.051 0.681 0.14s0.408 0.216 0.568 0.374l4.886 4.508 8.104-9.531c0.015-0.017 0.030-0.032 0.047-0.047h-0.002z"></path>
</symbol>
<symbol id="icon-phone-black-18dp-1" viewBox="0 0 24 32">
<path d="M19.635 18.487l-2.451-0.28c-0.589-0.067-1.167 0.135-1.582 0.55l-1.775 1.775c-2.731-1.389-4.969-3.618-6.359-6.359l1.785-1.785c0.415-0.415 0.618-0.994 0.55-1.582l-0.28-2.432c-0.116-0.975-0.936-1.708-1.92-1.708h-1.669c-1.090 0-1.997 0.907-1.93 1.997 0.511 8.24 7.102 14.821 15.332 15.332 1.090 0.068 1.997-0.839 1.997-1.93v-1.669c0.010-0.975-0.724-1.795-1.698-1.911z"></path>
</symbol>
<symbol id="icon-email-black-18dp-1" viewBox="0 0 24 32">
<path d="M20 8h-16c-1.1 0-1.99 0.9-1.99 2l-0.010 12c0 1.1 0.9 2 2 2h16c1.1 0 2-0.9 2-2v-12c0-1.1-0.9-2-2-2zM19.6 12.25l-7.070 4.42c-0.32 0.2-0.74 0.2-1.060 0l-7.070-4.42c-0.25-0.16-0.4-0.43-0.4-0.72 0-0.67 0.73-1.070 1.3-0.72l6.7 4.19 6.7-4.19c0.57-0.35 1.3 0.050 1.3 0.72 0 0.29-0.15 0.56-0.4 0.72z"></path>
</symbol>
<symbol id="icon-person-black-18dp-1" viewBox="0 0 32 32">
<path d="M16 16c2.947 0 5.333-2.387 5.333-5.333s-2.387-5.333-5.333-5.333c-2.947 0-5.333 2.387-5.333 5.333s2.387 5.333 5.333 5.333zM16 18.667c-3.56 0-10.667 1.787-10.667 5.333v1.333c0 0.733 0.6 1.333 1.333 1.333h18.667c0.733 0 1.333-0.6 1.333-1.333v-1.333c0-3.547-7.107-5.333-10.667-5.333z"></path>
</symbol>
<symbol id="icon-close-black-18dp-2-1" viewBox="0 0 32 32">
<path d="M32 3.223l-3.223-3.223-12.777 12.777-12.777-12.777-3.223 3.223 12.777 12.777-12.777 12.777 3.223 3.223 12.777-12.777 12.777 12.777 3.223-3.223-12.777-12.777 12.777-12.777z"></path>
</symbol>
<symbol id="icon-checkmark" viewBox="0 0 32 32">
<path d="M27 4l-15 15-7-7-5 5 12 12 20-20z"></path>
</symbol>
</defs>
</svg>
